<svg viewBox="-60 -380 1186 1153" xmlns="http://www.w3.org/2000/svg" fill="none">
<path fill-rule="evenodd" clip-rule="evenodd" d="M434 36H504V393H289L250 352V152L289 109H434V36ZM434 329V174H327L320 181V323L326 329H434Z" fill="#1B2E33"></path>
<path d="M639 75H718V0H639V75Z" fill="#1B2E33"></path>
<path d="M586 109H717V330H794V393H566V330H646V174H585V109H586Z" fill="#1B2E33"></path>
<path d="M845 393V109H904L915 118V150L957 109H1066V174H959L915 212V393H845Z" fill="#1B2E33"></path>
<path d="M0 393L173 13H250L78 393H0Z" fill="#5AA9D6"></path>
</svg>