<svg width="1066" height="393" viewBox="0 0 1066 393" fill="none" xmlns="http://www.w3.org/2000/svg">
<path fill-rule="evenodd" clip-rule="evenodd" d="M434 36H504V393H289L250 352V152L289 109H434V36ZM434 329V174H327L320 181V323L326 329H434Z" fill="white"></path>
<path d="M639 75H718V0H639V75Z" fill="white"></path>
<path d="M586 109H717V330H794V393H566V330H646V174H585V109H586Z" fill="white"></path>
<path d="M845 393V109H904L915 118V150L957 109H1066V174H959L915 212V393H845Z" fill="white"></path>
<path d="M0 393L173 13H250L78 393H0Z" fill="#2B3F40"></path>
</svg>